<?xml version="1.0" encoding="UTF-8"?>
<svg id="Capa_1" data-name="Capa 1" xmlns="http://www.w3.org/2000/svg" viewBox="0 0 132.33 27.63">
  <defs>
    <style>
      .cls-1 {
        fill: #1d1d1b;
      }

      .cls-2 {
        fill: #fff;
      }
    </style>
  </defs>
  <g>
    <rect class="cls-2" x="3" y="3" width="21.63" height="21.63"/>
    <path class="cls-1" d="M27.63,27.63H0V0h27.63v27.63ZM6,21.63h15.63V6H6v15.63Z"/>
  </g>
  <g>
    <path class="cls-1" d="M34.17,8.92c.54-1.05,1.32-1.87,2.33-2.45,1.01-.58,2.2-.87,3.57-.87,1.18,0,2.23.22,3.16.66.93.44,1.68,1.07,2.27,1.87.58.81.97,1.75,1.16,2.82h-4.49c-.2-.45-.5-.8-.87-1.05-.38-.25-.81-.37-1.3-.37-.72,0-1.28.27-1.7.81s-.62,1.26-.62,2.17.21,1.63.62,2.17.98.81,1.7.81c.49,0,.92-.12,1.3-.37.38-.25.67-.6.87-1.05h4.49c-.19,1.08-.58,2.02-1.16,2.82-.58.81-1.34,1.43-2.27,1.87-.93.44-1.98.66-3.16.66-1.37,0-2.56-.29-3.57-.87-1.01-.58-1.79-1.4-2.33-2.45-.54-1.05-.82-2.25-.82-3.59s.27-2.54.82-3.59Z"/>
    <path class="cls-1" d="M50.4,18.79c-.87-.45-1.55-1.09-2.04-1.93s-.74-1.82-.74-2.95.25-2.11.74-2.95,1.17-1.48,2.04-1.93,1.85-.67,2.94-.67,2.07.22,2.94.67,1.55,1.09,2.04,1.93.74,1.82.74,2.95-.25,2.11-.74,2.95-1.17,1.48-2.04,1.93c-.87.45-1.85.67-2.94.67s-2.07-.22-2.94-.67ZM54.34,15.3c.27-.31.4-.78.4-1.39s-.13-1.08-.4-1.39c-.27-.31-.6-.47-1-.47s-.73.16-1,.47c-.27.31-.4.78-.4,1.39s.13,1.08.39,1.39.6.47,1.01.47.73-.16,1-.47Z"/>
    <path class="cls-1" d="M65.83,8.8c.51-.29,1.11-.43,1.81-.43.84,0,1.61.22,2.29.66.68.44,1.21,1.08,1.6,1.92.39.84.59,1.83.59,2.97s-.2,2.13-.59,2.97c-.39.84-.92,1.48-1.6,1.92-.68.44-1.44.66-2.29.66-.7,0-1.31-.14-1.81-.43-.51-.29-.89-.68-1.16-1.18v6.66h-4.26V8.5h4.26v1.48c.27-.5.66-.89,1.16-1.18ZM67.36,12.57c-.29-.32-.67-.48-1.13-.48s-.84.16-1.13.48c-.29.32-.44.77-.44,1.34s.15,1.02.44,1.34c.29.32.67.48,1.13.48s.84-.16,1.13-.48c.29-.32.44-.77.44-1.34s-.15-1.02-.44-1.34Z"/>
    <path class="cls-1" d="M85.69,8.5l-6.93,16.01h-4.67l2.73-5.72-4.51-10.29h4.74l2.04,5.49,1.9-5.49h4.7Z"/>
    <path class="cls-1" d="M96.06,5.73v3.38h-5.34v1.88h3.84v3.21h-3.84v5.13h-4.26V5.73h9.6Z"/>
    <path class="cls-1" d="M101.77,5.12v14.21h-4.26V5.12h4.26Z"/>
    <path class="cls-1" d="M105.89,18.79c-.87-.45-1.55-1.09-2.04-1.93s-.74-1.82-.74-2.95.25-2.11.74-2.95,1.17-1.48,2.04-1.93,1.85-.67,2.94-.67,2.07.22,2.94.67,1.55,1.09,2.04,1.93.74,1.82.74,2.95-.25,2.11-.74,2.95-1.17,1.48-2.04,1.93c-.87.45-1.85.67-2.94.67s-2.07-.22-2.94-.67ZM109.83,15.3c.27-.31.4-.78.4-1.39s-.13-1.08-.4-1.39c-.27-.31-.6-.47-1-.47s-.73.16-1,.47c-.27.31-.4.78-.4,1.39s.13,1.08.39,1.39.6.47,1.01.47.73-.16,1-.47Z"/>
    <path class="cls-1" d="M132.33,8.5l-2.57,10.83h-4.8l-1.31-6.11-1.38,6.11h-4.8l-2.55-10.83h4.22l.9,6.59,1.4-6.59h4.55l1.48,6.66.92-6.66h3.94Z"/>
  </g>
</svg>